<svg xmlns="http://www.w3.org/2000/svg" xmlns:xlink="http://www.w3.org/1999/xlink" viewBox="0 0 575 200" style="overflow:visible;enable-background:new 0 0 100 100;" width="200" height="200" xml:space="preserve">
  <g id="logo">
    <g>
      <path fill="transparent" stroke="#73A300" stroke-width="0.5" stroke-dasharray="1000" stroke-linecap="round" d="M39.9,56.07c-1.15-0.07-1.62,0.78-1.65,1.94c-0.03,1.24,0.52,2.02,1.71,2.13c1.03,0.09,1.59-0.51,1.37-1.55
		C41.4,57.38,41.34,56.17,39.9,56.07z">
        <animate attributeName="fill" from="transparent" to="#73A300" dur="1s" begin="3s" fill="freeze" />
        <animate attributeName="stroke-dashoffset" from="1000" to="0" dur="4s" fill="freeze" />
      </path>
      <path fill="transparent" stroke="#73A300" stroke-width="0.5" stroke-dasharray="1000" d="M54.96,46.59c-2.18-0.02-3.26,1.17-3.25,3.61c0.09,5.32,6.79,5.15,6.99,0.02
		C58.74,47.93,57.38,46.61,54.96,46.59z">
        <animate attributeName="fill" from="transparent" to="#73A300" dur="1s" begin="3s" fill="freeze" />
        <animate attributeName="stroke-dashoffset" from="1000" to="0" dur="7s" fill="freeze" />
      </path>
      <animateTransform attributeName="transform" attributeType="XML" type="rotate" from="0 35 35" to="360 35 35" dur="12s" repeatCount="indefinite" />
    </g>
    <path fill="transparent" stroke="#73A300" stroke-width="0.5" stroke-dasharray="1000" d="M70,35.01c0-8.3-2.89-15.92-7.72-21.92c-1.06-1.21-2.22-2.38-3.48-3.49c-5.37-4.75-11.22-7.85-17.61-9.05
		c-0.28-0.05-0.55-0.11-0.84-0.15c-0.04-0.01-0.09-0.01-0.13-0.02c-1.54-0.23-3.11-0.35-4.71-0.38C35.28,0.01,35.04,0,34.8,0
		c-0.2,0-0.41,0.01-0.61,0.02c-1.97,0.06-3.98,0.28-6.05,0.69c-0.82,0.16-1.62,0.35-2.42,0.54C10.9,5.32,0,18.89,0,35.01
		C0,54.02,15.15,69.49,34.04,70c0.43-0.01,0.84,0,1.27-0.02c0.01,0,0.02,0,0.03,0c0.35,0.01,0.7,0.01,1.04,0.01
		C55.07,69.26,70,53.88,70,35.01z M57.24,57.25c-0.99,0.89-2.87,1.95-4.23,2.67c-1.3,0.68-2.51,1.51-3.58,2.51
		c-0.16,0.15-0.32,0.3-0.46,0.44c-1.37,1.39-3.11,2.35-5.01,2.76l-2.99,0.65c-1.94,0.42-3.96,0.26-5.82-0.42
		c-1.91-0.7-4.4-1.47-5.91-1.38C17.18,65.19,9.66,58.57,4.83,48.3C0.68,39.5,1.47,30.67,5.38,22c0.95-2.11,2.26-3.95,4.27-4.64
		c0.66-0.22,1.39-0.05,1.89,0.43c0.65,0.62,1.61,0.53,2.04-0.26c0.08-0.15,0.13-0.3,0.13-0.44c-0.03-2.6,1.46-4.21,3.29-5.69
		C33.31-2.14,55.02,6.76,64,24.62c1.06,2,1.17,4.04,0.58,6.29c-0.33,1.28-0.29,2.92,0.24,4.1C68.25,42.4,62.74,52.31,57.24,57.25z">
      <animate attributeName="fill" from="transparent" to="#73A300" dur="1s" begin="3s" fill="freeze" />
      <animate attributeName="stroke-dashoffset" from="1000" to="0" dur="15s" fill="freeze" />
    </path>
    <animateTransform attributeName="transform" attributeType="XML" type="rotate" from="0 35 35" to="360 35 35" dur="20s" repeatCount="indefinite" />
  </g>
  
  <g id="name" style="transform: translate(97px, 6px);">
  
  <defs>
    <style>
      .cls-1 {
        fill: #fff;
      }
    </style>
  </defs>
    <path class="cls-1" d="m57.01,52.18h-9.8V16.36l-14.7,35.82h-8.29L9.51,16.65v35.53H0V1.08h13.12l15.35,36.9L43.46,1.08h13.55v51.1Z"/>
    <path class="cls-1" d="m103.35,52.18l-4.25-11.68h-20.76l-4.25,11.68h-10.52L83.17,1.08h11.53l19.46,51.1h-10.81Zm-14.63-40.07l-7.06,19.32h14.13l-7.06-19.32Z"/>
    <path class="cls-1" d="m153.66,10.52h-16.14v41.66h-10.02V10.52h-16.14V1.08h42.31v9.44Z"/>
    <path class="cls-1" d="m182.41,53.26c-7.35,0-13.55-2.45-18.6-7.35-5.04-4.9-7.57-11.32-7.57-19.24s2.56-14.29,7.68-19.24c5.12-4.95,11.23-7.42,18.34-7.42,6.53,0,11.78,1.66,15.75,4.97,3.96,3.32,6.52,7.3,7.68,11.96l-9.37,2.95c-.72-2.88-2.23-5.32-4.54-7.32-2.31-1.99-5.48-2.99-9.51-2.99s-7.85,1.49-10.99,4.47c-3.15,2.98-4.72,7.18-4.72,12.61s1.55,9.3,4.65,12.32c3.1,3.03,6.83,4.54,11.21,4.54,3.99,0,7.17-1.03,9.55-3.1,2.38-2.07,3.98-4.52,4.79-7.35l9.3,2.81c-.53,2.07-1.38,4.08-2.56,6.05-1.18,1.97-2.7,3.82-4.58,5.55-1.87,1.73-4.24,3.12-7.1,4.18-2.86,1.06-5.99,1.59-9.41,1.59Z"/>
    <path class="cls-1" d="m256.58,52.18h-10.02v-21.19h-22.27v21.19h-9.95V1.08h9.95v20.54h22.27V1.08h10.02v51.1Z"/>
    <path class="cls-1" d="m302.92,52.18l-4.25-11.68h-20.76l-4.25,11.68h-10.52L282.74,1.08h11.53l19.46,51.1h-10.81Zm-14.63-40.07l-7.06,19.32h14.13l-7.06-19.32Z"/>

  </g>
</svg>

